<svg width="33" height="33" viewBox="0 0 33 33" fill="none" xmlns="http://www.w3.org/2000/svg">
<path d="M31.3479 6.60183H23.0984V3.84651C23.0597 2.79029 22.6038 1.7925 21.8306 1.07188C21.0574 0.351269 20.0301 -0.0333747 18.9737 0.00227427H14.0241C12.9677 -0.0333747 11.9403 0.351269 11.1672 1.07188C10.394 1.7925 9.93804 2.79029 9.89933 3.84651V6.60183H1.64989C1.21231 6.60183 0.792655 6.77566 0.483241 7.08507C0.173827 7.39448 0 7.81414 0 8.25172C0 8.68929 0.173827 9.10895 0.483241 9.41836C0.792655 9.72778 1.21231 9.9016 1.64989 9.9016H3.29978V28.0504C3.29978 29.3631 3.82126 30.6221 4.7495 31.5503C5.67774 32.4786 6.93671 33 8.24944 33H24.7483C26.0611 33 27.32 32.4786 28.2483 31.5503C29.1765 30.6221 29.698 29.3631 29.698 28.0504V9.9016H31.3479C31.7855 9.9016 32.2051 9.72778 32.5145 9.41836C32.8239 9.10895 32.9978 8.68929 32.9978 8.25172C32.9978 7.81414 32.8239 7.39448 32.5145 7.08507C32.2051 6.77566 31.7855 6.60183 31.3479 6.60183ZM13.1991 3.84651C13.1991 3.58253 13.5456 3.30205 14.0241 3.30205H18.9737C19.4522 3.30205 19.7987 3.58253 19.7987 3.84651V6.60183H13.1991V3.84651Z" fill="#231F20"/>
</svg>
