<svg width="23" height="20" viewBox="0 0 23 20" fill="none" xmlns="http://www.w3.org/2000/svg">
<path d="M21.4266 8.57242H4.4853L9.67053 2.34443C9.913 2.05272 10.0296 1.67664 9.99482 1.29892C9.95999 0.921204 9.77655 0.572791 9.48484 0.33033C9.19313 0.0878686 8.81705 -0.0287805 8.43933 0.00604444C8.06161 0.0408694 7.7132 0.224316 7.47074 0.516027L0.328541 9.08666C0.280489 9.15483 0.23752 9.22645 0.199981 9.30093C0.199981 9.37235 0.199982 9.4152 0.099991 9.48663C0.0352448 9.65041 0.00134433 9.82475 0 10.0009C0.00134433 10.177 0.0352448 10.3513 0.099991 10.5151C0.099991 10.5865 0.0999906 10.6294 0.199981 10.7008C0.23752 10.7753 0.280489 10.8469 0.328541 10.9151L7.47074 19.4857C7.60504 19.6469 7.77323 19.7766 7.96333 19.8655C8.15343 19.9544 8.36078 20.0003 8.57064 19.9999C8.90439 20.0006 9.22784 19.8844 9.48484 19.6714C9.62948 19.5515 9.74904 19.4042 9.83668 19.238C9.92432 19.0718 9.97831 18.89 9.99556 18.7029C10.0128 18.5158 9.99298 18.3271 9.9372 18.1477C9.88143 17.9683 9.79081 17.8016 9.67053 17.6573L4.4853 11.4293H21.4266C21.8054 11.4293 22.1688 11.2788 22.4366 11.0109C22.7045 10.743 22.855 10.3797 22.855 10.0009C22.855 9.62202 22.7045 9.25869 22.4366 8.9908C22.1688 8.72292 21.8054 8.57242 21.4266 8.57242Z" fill="#231F20"/>
</svg>
