<svg width="45" height="40" viewBox="0 0 45 40" fill="none" xmlns="http://www.w3.org/2000/svg">
<path d="M43.4999 18.9722C43.508 21.6853 42.7884 24.3616 41.3999 26.7833C39.7536 29.6852 37.2227 32.126 34.0907 33.8324C30.9587 35.5387 27.3492 36.4431 23.6667 36.4444C20.587 36.4515 17.5489 35.8176 14.8 34.5944L1.50006 38.4999L5.93338 26.7833C4.54489 24.3616 3.82536 21.6853 3.83339 18.9722C3.83481 15.7281 4.86148 12.5483 6.79839 9.78916C8.7353 7.03 11.506 4.80038 14.8 3.35005C17.5489 2.12686 20.587 1.49298 23.6667 1.50006H24.8333C29.6968 1.73643 34.2904 3.54484 37.7346 6.57903C41.1788 9.61322 43.2316 13.66 43.4999 17.9445V18.9722Z" stroke="white" stroke-width="3" stroke-linecap="round" stroke-linejoin="round"/>
<path d="M43.4999 18.9722C43.508 21.6853 42.7884 24.3616 41.3999 26.7833C39.7536 29.6852 37.2227 32.126 34.0907 33.8324C30.9587 35.5387 27.3492 36.4431 23.6667 36.4444C20.587 36.4515 17.5489 35.8176 14.8 34.5944L1.50006 38.4999L5.93338 26.7833C4.54489 24.3616 3.82536 21.6853 3.83339 18.9722C3.83481 15.7281 4.86148 12.5483 6.79839 9.78916C8.7353 7.03 11.506 4.80038 14.8 3.35005C17.5489 2.12686 20.587 1.49298 23.6667 1.50006H24.8333C29.6968 1.73643 34.2904 3.54484 37.7346 6.57903C41.1788 9.61322 43.2316 13.66 43.4999 17.9445V18.9722Z" stroke="white" stroke-opacity="0.2" stroke-width="3" stroke-linecap="round" stroke-linejoin="round"/>
</svg>
