<svg width="51" height="41" viewBox="0 0 51 41" fill="none" xmlns="http://www.w3.org/2000/svg">
<path d="M49.2499 19.4723C49.259 22.1853 48.4495 24.8617 46.8874 27.2834C45.0353 30.1853 42.188 32.6261 38.6645 34.3324C35.141 36.0387 31.0803 36.9432 26.9375 36.9444C23.4728 36.9515 20.055 36.3176 16.9625 35.0945L2 39L6.98749 27.2834C5.42544 24.8617 4.61596 22.1853 4.625 19.4723C4.6266 16.2281 5.7816 13.0483 7.96063 10.2892C10.1397 7.53001 13.2567 5.30039 16.9625 3.85006C20.055 2.62686 23.4728 1.99298 26.9375 2.00006H28.25C33.7214 2.23643 38.8892 4.04484 42.7639 7.07904C46.6387 10.1132 48.9481 14.16 49.2499 18.4445V19.4723Z" stroke="white" stroke-width="3" stroke-linecap="round" stroke-linejoin="round"/>
<path d="M49.2499 19.4723C49.259 22.1853 48.4495 24.8617 46.8874 27.2834C45.0353 30.1853 42.188 32.6261 38.6645 34.3324C35.141 36.0387 31.0803 36.9432 26.9375 36.9444C23.4728 36.9515 20.055 36.3176 16.9625 35.0945L2 39L6.98749 27.2834C5.42544 24.8617 4.61596 22.1853 4.625 19.4723C4.6266 16.2281 5.7816 13.0483 7.96063 10.2892C10.1397 7.53001 13.2567 5.30039 16.9625 3.85006C20.055 2.62686 23.4728 1.99298 26.9375 2.00006H28.25C33.7214 2.23643 38.8892 4.04484 42.7639 7.07904C46.6387 10.1132 48.9481 14.16 49.2499 18.4445V19.4723Z" stroke="white" stroke-opacity="0.2" stroke-width="3" stroke-linecap="round" stroke-linejoin="round"/>
</svg>
